<svg version="1.2" xmlns="http://www.w3.org/2000/svg" viewBox="0 0 1243 829" width="1243" height="829">
	<title>aws</title>
	<style>
		.s0 { fill: #252f3e } 
		.s1 { fill: #ff9900 } 
	</style>
	<filter id="f0">
		<feFlood flood-color="#ffffff" flood-opacity="1" />
		<feBlend mode="normal" in2="SourceGraphic"/>
		<feComposite in2="SourceAlpha" operator="in" />
	</filter>
	<g id="g1865" filter="url(#f0)">
		<path id="path1857" class="s0" d="m419.8 338.6c0 11.4 1.2 20.6 3.4 27.4 2.4 6.7 5.5 14.1 9.8 22.1 1.5 2.4 2.1 4.9 2.1 7 0 3.1-1.8 6.2-5.8 9.2l-19.3 12.9c-2.8 1.9-5.6 2.8-8 2.8-3.1 0-6.2-1.6-9.2-4.3-4.3-4.6-8-9.5-11.1-14.4-3.1-5.3-6.1-11.1-9.5-18.2q-35.9 42.4-90.3 42.4c-25.8 0-46.3-7.4-61.4-22.1-15-14.7-22.7-34.4-22.7-58.9 0-26.1 9.2-47.3 27.9-63.3 18.8-15.9 43.6-23.9 75.3-23.9 10.4 0 21.1 0.9 32.5 2.4 11.4 1.6 23 4 35.3 6.8v-22.4c0-23.4-4.9-39.6-14.4-49.2-9.8-9.5-26.4-14.1-50.1-14.1-10.7 0-21.8 1.3-33.1 4-11.4 2.8-22.4 6.2-33.2 10.5-4.9 2.1-8.6 3.3-10.7 3.9-2.2 0.7-3.7 1-4.9 1-4.3 0-6.5-3.1-6.5-9.5v-15.1c0-4.9 0.6-8.6 2.2-10.7 1.5-2.2 4.3-4.3 8.6-6.5q16.1-8.3 38.7-13.8c15-4 31-5.8 47.8-5.8 36.6 0 63.3 8.3 80.5 24.8 16.9 16.6 25.5 41.8 25.5 75.6v99.4zm-124.7 46.7c10.1 0 20.6-1.8 31.6-5.5 11.1-3.7 20.9-10.5 29.2-19.7 4.9-5.8 8.6-12.3 10.4-19.6 1.9-7.4 3.1-16.3 3.1-26.7v-12.9c-8.9-2.2-18.4-4-28.2-5.3-9.9-1.2-19.4-1.8-28.9-1.8-20.6 0-35.6 4-45.7 12.3-10.2 8.3-15.1 19.9-15.1 35.3 0 14.4 3.7 25.2 11.4 32.5 7.3 7.7 18.1 11.4 32.2 11.4zm246.5 33.1c-5.5 0-9.2-0.9-11.6-3-2.5-1.9-4.6-6.2-6.5-12l-72.1-237.3c-1.9-6.2-2.8-10.1-2.8-12.3 0-4.9 2.5-7.7 7.4-7.7h30.1c5.8 0 9.8 1 11.9 3.1 2.5 1.8 4.3 6.1 6.2 12l51.6 203.2 47.9-203.2c1.5-6.2 3.3-10.2 5.8-12 2.4-1.8 6.7-3.1 12.3-3.1h24.5c5.9 0 9.9 1 12.3 3.1 2.5 1.8 4.6 6.1 5.8 12l48.6 205.7 53.1-205.7c1.8-6.2 4-10.2 6.1-12 2.5-1.8 6.5-3.1 12-3.1h28.5c4.9 0 7.7 2.5 7.7 7.7 0 1.5-0.3 3.1-0.6 4.9-0.3 1.9-0.9 4.3-2.2 7.7l-73.9 237.3q-2.8 9.2-6.5 12c-2.5 1.8-6.4 3.1-11.7 3.1h-26.4c-5.8 0-9.8-1-12.2-3.1-2.5-2.2-4.6-6.2-5.9-12.3l-47.6-198-47.2 197.7c-1.6 6.1-3.4 10.1-5.9 12.3-2.4 2.1-6.7 3-12.3 3zm394.5 8.3c-15.9 0-31.9-1.8-47.2-5.5-15.4-3.7-27.4-7.7-35.3-12.3-4.9-2.7-8.3-5.8-9.6-8.6-1.2-2.7-1.8-5.8-1.8-8.6v-15.6c0-6.5 2.5-9.5 7.1-9.5q2.7 0 5.5 0.9c1.8 0.6 4.6 1.8 7.7 3.1 10.4 4.6 21.8 8.2 33.7 10.7 12.3 2.5 24.3 3.7 36.6 3.7 19.3 0 34.4-3.4 44.8-10.1 10.4-6.8 16-16.6 16-29.2 0-8.6-2.8-15.7-8.3-21.5-5.6-5.8-16-11.1-31-16l-44.6-13.8c-22.4-7-38.9-17.5-49.1-31.3-10.1-13.5-15.3-28.5-15.3-44.5q0-19.4 8.3-34.1c5.5-9.8 12.9-18.4 22.1-25.2 9.2-7 19.6-12.2 31.9-15.9 12.3-3.7 25.2-5.2 38.7-5.2 6.7 0 13.8 0.3 20.5 1.2 7.1 0.9 13.6 2.1 20 3.4 6.1 1.5 12 3 17.5 4.9q8.3 2.7 12.9 5.5c4.3 2.5 7.4 4.9 9.2 7.7q2.8 3.7 2.8 10.1v14.4c0 6.5-2.5 9.9-7.1 9.9-2.4 0-6.4-1.3-11.7-3.7q-26.2-12-58.9-12c-17.5 0-31.3 2.8-40.8 8.6-9.6 5.8-14.5 14.7-14.5 27.3 0 8.6 3.1 16 9.2 21.8 6.2 5.8 17.5 11.7 33.8 16.9l43.6 13.8c22.1 7.1 38.1 16.9 47.6 29.5 9.5 12.6 14.1 27 14.1 43 0 13.2-2.7 25.1-8 35.6-5.5 10.4-12.9 19.6-22.4 27-9.5 7.7-20.9 13.2-34.1 17.2-13.8 4.3-28.2 6.4-43.9 6.4z"/>
		<g id="g1863">
			<path id="path1859" fill-rule="evenodd" class="s1" d="m994.2 575.9c-101 74.6-247.8 114.2-374 114.2-176.8 0-336.1-65.3-456.5-174-9.5-8.6-0.9-20.3 10.5-13.5 130.1 75.5 290.7 121.2 456.8 121.2 112.1 0 235.2-23.3 348.4-71.2 16.9-7.7 31.4 11.1 14.8 23.3z"/>
			<path id="path1861" fill-rule="evenodd" class="s1" d="m1036.2 528c-12.9-16.5-85.3-7.9-118.2-3.9-9.8 1.2-11.3-7.4-2.4-13.9 57.7-40.5 152.6-28.8 163.6-15.3 11.1 13.8-3 108.7-57.1 154.1-8.3 7.1-16.3 3.4-12.6-5.8 12.3-30.4 39.6-98.9 26.7-115.2z"/>
		</g>
	</g>
</svg>