<svg version="1.2" xmlns="http://www.w3.org/2000/svg" viewBox="0 0 2108 1403" width="2108" height="1403">
	<title>ChatGPT-Logo</title>
	<style>
		.s0 { fill: #ffffff } 
	</style>
	<path class="s0" d="m1455.7 616.8c5.2-15.7 8.7-32 10.5-48.4 1.8-16.5 1.9-33.1 0.1-49.5-1.7-16.5-5.2-32.7-10.3-48.4-5.2-15.8-12-30.9-20.4-45.2-51-88.8-153.6-134.6-253.8-113-11-12.4-23.3-23.6-36.6-33.4-13.4-9.8-27.7-18.1-42.9-24.8-15.1-6.8-30.9-11.9-47.1-15.3-16.2-3.4-32.7-5-49.2-4.9-102.5-0.3-193.3 65.7-224.9 163.2-16.2 3.3-32 8.3-47.1 15-15.2 6.7-29.6 14.9-43 24.7-13.4 9.7-25.7 20.8-36.8 33.1-11 12.4-20.7 25.8-28.9 40.2-51.4 88.7-39.7 200.4 29 276.4-5.2 15.7-8.8 31.9-10.6 48.4-1.8 16.4-1.8 33-0.1 49.5 1.7 16.4 5.2 32.7 10.4 48.4 5.1 15.7 12 30.8 20.3 45.1 51.1 88.9 153.7 134.6 253.9 113.1 11 12.4 23.2 23.6 36.6 33.3 13.3 9.8 27.7 18.1 42.8 24.9 15.1 6.7 30.9 11.8 47.1 15.2 16.2 3.4 32.7 5.1 49.3 4.9 102.5 0.3 193.4-65.7 224.9-163.3 16.2-3.3 32-8.3 47.2-15 15.1-6.7 29.5-14.9 42.9-24.6 13.4-9.8 25.8-20.9 36.8-33.2 11.1-12.3 20.8-25.8 29-40.2 51.3-88.6 39.6-200.3-29.1-276.3zm-351.6 491.5c-10.2 0-20.3-0.9-30.3-2.6-10-1.8-19.9-4.4-29.4-7.9-9.6-3.4-18.8-7.7-27.6-12.7-8.8-5.1-17.2-10.9-25-17.4 1.5-0.8 4-2.2 5.6-3.1l186.2-107.6c2.4-1.4 4.5-3 6.4-4.9 1.9-1.9 3.6-4 4.9-6.3 1.3-2.3 2.4-4.8 3-7.4 0.7-2.6 1.1-5.3 1.1-7.9v-262.7l78.7 45.5c0.8 0.4 1.4 1.2 1.5 2.2v217.4c-0.1 96.7-78.4 175.2-175.1 175.4zm-376.7-160.9c-5.1-8.8-9.4-18-12.9-27.6-3.5-9.5-6.1-19.3-7.9-29.3-1.8-10-2.7-20.1-2.7-30.3 0-10.1 0.9-20.3 2.6-30.3 1.4 0.8 3.8 2.3 5.5 3.3l186.3 107.6c9.5 5.5 21.1 5.5 30.6 0l227.4-131.3v90.9c0.1 0.9-0.3 1.8-1.1 2.4l-188.3 108.8c-83.8 48.2-191 19.5-239.5-64.2zm-49-406.6c20.5-35.6 52.8-62.8 91.3-76.9 0 1.6-0.1 4.4-0.1 6.4v215.2c-0.1 11 5.8 21.1 15.3 26.5l227.4 131.3-78.8 45.5c-0.7 0.5-1.7 0.6-2.6 0.2l-188.3-108.8c-83.7-48.5-112.5-155.6-64.2-239.4zm646.8 150.5l-227.4-131.3 78.7-45.4c0.8-0.6 1.8-0.6 2.7-0.3l188.3 108.8c83.9 48.4 112.6 155.7 64.2 239.5-5.1 8.8-10.9 17.1-17.5 24.9-6.5 7.8-13.6 15-21.4 21.5-7.8 6.6-16.1 12.4-24.9 17.5-8.7 5.1-17.9 9.4-27.4 12.9v-221.6c0-10.9-5.8-21-15.2-26.5zm78.3-117.9c-1.4-0.9-3.8-2.3-5.5-3.3l-186.3-107.6c-2.3-1.3-4.8-2.4-7.4-3.1-2.6-0.7-5.2-1-7.9-1-2.7 0-5.4 0.3-7.9 1-2.6 0.7-5.1 1.8-7.4 3.1l-227.4 131.3v-90.9c-0.1-0.9 0.4-1.8 1.1-2.4l188.3-108.7c83.9-48.3 191.1-19.5 239.4 64.4 5.1 8.7 9.4 17.9 12.9 27.5 3.4 9.5 6.1 19.3 7.9 29.2 1.7 10 2.6 20.1 2.7 30.3 0 10.1-0.8 20.2-2.6 30.2zm-492.6 162l-78.7-45.4q-0.4-0.2-0.6-0.4-0.3-0.2-0.5-0.5-0.2-0.3-0.3-0.6-0.1-0.3-0.2-0.7v-217.5c0.1-96.8 78.6-175.3 175.5-175.2 40.9 0 80.6 14.4 112.1 40.6-1.5 0.7-3.9 2.1-5.6 3.1l-186.3 107.6c-2.3 1.3-4.4 2.9-6.3 4.8-1.9 1.9-3.6 4-4.9 6.4-1.3 2.3-2.4 4.8-3.1 7.3-0.6 2.6-1 5.3-1 8l-0.1 262.5zm42.8-92.2l101.3-58.5 101.3 58.4v117l-101.3 58.5-101.3-58.5z"/>
</svg>